<?xml version="1.0" encoding="utf-8"?>
<svg xmlns="http://www.w3.org/2000/svg" viewBox="0 200 465.359 100">
  <g transform="matrix(1, 0, 0, 1, -24, -8)">
    <path style="stroke: rgb(0, 0, 0);" d="M 25.987 229.71 C 25.987 229.71 25.862 295.331 25.862 295.456 C 25.862 295.581 41.388 295.331 41.388 295.331 L 41.138 251.508 L 70.061 289.321 C 70.061 289.321 98.483 251.508 98.483 251.883 C 98.483 252.258 98.432 295.03 98.432 295.03 L 114.27 295.291 L 113.634 229.721 L 97.983 229.596 L 70.812 267.66 L 42.39 229.721 L 25.987 229.71 Z"/>
    <path style="stroke: rgb(0, 0, 0);" d="M 124.333 295.373 L 140.843 295.373 L 148.705 281.745 L 189.718 281.614 C 189.718 281.614 197.842 295.766 198.105 295.635 C 198.368 295.504 214.746 295.242 214.746 295.242 L 178.712 229.201 L 159.45 229.201 L 124.333 295.373 Z"/>
    <path style="stroke: rgb(0, 0, 0); fill: rgb(255, 255, 255);" d="M 169.277 242.436 L 155.257 269.297 L 183.56 269.166 L 169.277 242.436 Z"/>
    <path style="stroke: rgb(0, 0, 0);" d="M 254.71 210.856 L 213.304 234.312 C 213.304 234.312 212.911 281.352 212.911 281.221 C 212.911 281.09 254.654 305.707 254.654 305.707 L 297.165 281.483 L 296.772 234.705 L 254.71 210.856 Z"/>
    <polygon style="stroke: rgb(0, 0, 0); fill: rgb(255, 255, 255);" points="254.198 256.98 216.376 235.107 254.733 213.307 293.889 235.229"/>
    <polygon style="stroke: rgb(0, 0, 0); fill: rgb(255, 255, 255);" points="255.89 259.175 294.676 237.446 295.069 280.141 256.027 302.774"/>
    <polygon style="stroke: rgb(0, 0, 0);" points="306.6 295.21 306.207 229.693 370.544 229.693 370.544 274.637 356.41 274.695 372.578 295.193 354.399 295.171 338.213 274.7 324.158 274.768 324.158 263.369 354.689 263.369 354.558 241.44 321.8 241.486 322.455 295.21"/>
    <polygon style="stroke: rgb(0, 0, 0);" points="382.48 295.125 382.138 229.608 396.996 229.633 397.303 295.193"/>
    <g>
      <polygon style="stroke: rgb(0, 0, 0);" points="406.709 229.431 427.413 229.169 485.722 294.554 464.233 294.292 447.592 275.686 430.426 294.554 408.413 294.554 436.323 263.5"/>
      <polygon style="stroke: rgb(0, 0, 0);" points="464.888 229.562 449.426 247.121 460.04 259.307 486.639 229.431"/>
    </g>
  </g>
</svg>